<svg xmlns="http://www.w3.org/2000/svg" viewBox="0 0 153 203" width="3.015in" height="4.000in">
<title>pine-trees</title>
<path id="silhouette" fill="#000000" d="M107.83,9.27C106.75,9.60 105.80,10.77 105.65,12.07C104.65,20.38 104.73,19.95 103.95,20.95C101.78,23.67 101.65,26.40 103.65,27.97C104.30,28.50 104.30,28.50 103.88,29.17C103.62,29.57 102.73,30.60 101.88,31.50C99.98,33.47 99.75,33.90 99.75,35.38C99.75,36.35 99.88,36.65 100.75,37.60C101.30,38.20 101.75,38.77 101.75,38.90C101.75,39.02 101.00,40.07 100.10,41.25C97.18,45.05 96.50,46.20 96.50,47.40C96.50,48.65 97.55,50.10 98.88,50.65L99.62,50.95L98.68,51.85C98.18,52.32 96.75,53.38 95.55,54.17C93.15,55.75 90.65,58.00 90.10,59.05C89.90,59.42 89.75,60.15 89.75,60.65C89.75,62.47 92.68,64.47 95.35,64.50C95.83,64.53 96.43,64.78 96.85,65.15C97.73,65.92 97.78,65.85 93.83,69.15C90.08,72.32 89.75,72.72 89.75,74.30C89.75,76.05 90.90,77.20 93.38,77.95C96.18,78.80 96.28,78.92 94.80,80.25C92.90,82.00 90.73,83.62 89.55,84.22C87.25,85.40 85.75,87.27 85.75,89.00C85.75,91.05 88.03,93.07 90.68,93.40C92.68,93.65 92.68,93.65 91.20,95.20C89.48,97.00 89.00,97.90 89.00,99.40C89.00,100.42 89.12,100.67 89.98,101.52C90.50,102.07 91.30,102.57 91.73,102.65C92.70,102.85 92.70,102.97 91.70,103.92C89.98,105.52 89.75,105.57 89.10,104.62C88.78,104.15 87.93,103.05 87.20,102.20C86.45,101.32 85.48,100.07 85.03,99.40L84.20,98.20L84.95,97.42C85.95,96.35 86.50,95.20 86.50,94.20C86.48,93.20 86.33,92.92 84.33,90.32C82.40,87.82 82.23,87.27 83.10,86.22C84.00,85.17 84.00,83.45 83.12,82.15C81.98,80.45 81.80,79.88 81.53,76.75C81.15,72.62 80.28,71.20 78.12,71.20C76.12,71.20 75.08,72.62 74.88,75.62C74.65,78.97 74.33,80.27 73.38,81.77C72.25,83.50 72.17,85.07 73.12,86.20C74.03,87.27 73.92,87.65 72.08,90.40C69.62,94.07 69.45,95.35 71.12,97.22L71.98,98.17L71.08,99.52C70.58,100.27 69.48,101.72 68.62,102.75C66.73,105.02 66.50,105.47 66.50,106.62C66.50,107.92 67.08,108.85 68.62,110.02C69.38,110.60 70.00,111.15 70.00,111.25C70.00,111.38 69.35,112.02 68.58,112.72L67.15,114.00L65.90,112.67C65.20,111.97 63.90,110.92 63.00,110.38L61.35,109.40L61.45,107.82C61.55,106.27 61.55,106.22 60.58,105.27C59.83,104.52 59.18,104.17 57.73,103.75L55.88,103.20L56.80,102.22C57.30,101.70 57.90,101.25 58.10,101.25C58.30,101.25 58.78,100.97 59.18,100.67C59.55,100.35 60.18,100.00 60.55,99.92C62.33,99.47 64.50,96.95 64.50,95.30C64.50,93.62 63.53,92.50 61.00,91.25C59.28,90.38 56.53,88.72 55.50,87.92L54.88,87.42L55.60,87.55C56.68,87.75 58.73,87.12 59.55,86.32C60.60,85.35 61.00,84.45 61.00,83.15C61.00,81.80 60.40,81.00 57.98,79.15C57.05,78.45 55.62,77.32 54.78,76.62L53.23,75.40L54.33,75.07C55.90,74.62 57.50,72.85 57.50,71.57C57.50,70.30 56.80,69.25 55.20,68.05C53.25,66.57 51.33,64.55 51.78,64.40C51.98,64.32 52.60,64.15 53.20,64.00C55.15,63.50 56.75,61.62 56.75,59.88C56.75,58.47 56.25,57.80 53.20,55.07C49.48,51.72 48.78,50.97 49.25,50.80C49.45,50.72 50.05,50.25 50.55,49.75C51.43,48.88 51.50,48.70 51.50,47.32C51.50,45.70 51.15,45.05 49.00,42.50C48.38,41.75 47.58,40.75 47.28,40.30L46.70,39.47L47.33,38.80C48.25,37.77 48.50,37.15 48.50,35.75C48.50,34.62 48.40,34.38 47.53,33.42C46.62,32.47 46.58,32.32 46.90,31.88C47.53,31.05 47.33,29.47 46.43,27.97C44.93,25.47 44.58,24.32 44.25,20.88C43.93,17.42 43.65,16.55 42.45,15.67C41.62,15.07 40.00,15.02 39.12,15.60C37.88,16.42 37.68,17.07 37.50,20.72C37.33,24.40 37.12,25.00 35.30,27.85C34.40,29.27 34.23,31.00 34.90,31.95C35.25,32.47 35.23,32.57 34.40,33.65C33.60,34.70 33.50,34.97 33.50,36.40C33.50,37.72 33.60,38.07 34.15,38.72C34.93,39.65 34.90,39.70 32.50,42.35C30.73,44.32 30.25,45.25 30.25,46.88C30.25,48.57 31.25,50.15 32.70,50.67L33.25,50.88L32.50,51.80C32.10,52.30 30.88,53.42 29.83,54.32C28.75,55.20 27.23,56.55 26.45,57.30C25.03,58.60 25.00,58.67 25.00,59.97C25.00,61.17 25.10,61.40 25.95,62.25C27.05,63.35 29.12,64.10 30.43,63.85C31.03,63.72 31.25,63.78 31.25,64.03C31.25,64.42 27.40,68.12 26.48,68.62C24.33,69.78 23.75,72.55 25.33,74.12C26.15,74.95 27.53,75.50 28.85,75.50C29.85,75.50 29.60,75.75 25.58,78.80C21.38,81.97 21.00,82.40 21.00,84.02C21.00,86.70 22.98,88.42 26.28,88.62C27.75,88.72 27.83,88.95 26.68,89.92C26.10,90.42 25.00,91.42 24.25,92.15C23.50,92.85 22.60,93.50 22.25,93.60C20.20,94.07 19.00,95.65 19.00,97.82C19.00,100.82 20.50,102.12 24.20,102.35C26.15,102.45 26.55,102.70 25.60,103.20C24.08,104.00 20.65,107.02 20.10,108.05C18.95,110.22 20.55,112.92 23.28,113.38C23.78,113.47 24.38,113.72 24.60,113.97C24.98,114.38 24.95,114.45 24.30,114.92C23.93,115.20 22.70,116.22 21.55,117.20C20.43,118.20 18.90,119.30 18.18,119.65C14.93,121.30 13.75,122.57 13.75,124.45C13.75,126.40 15.28,128.25 17.55,129.02C18.82,129.45 18.88,129.50 19.00,130.55C19.25,132.45 20.65,134.00 22.55,134.50C23.15,134.65 23.73,134.80 23.83,134.82C23.93,134.85 23.50,135.47 22.88,136.20C22.12,137.10 21.70,137.88 21.60,138.52C21.45,139.38 21.30,139.57 20.40,139.97C18.30,140.90 12.28,145.75 11.60,147.03C11.15,147.93 11.15,149.32 11.62,150.22C12.38,151.70 14.75,153.18 16.70,153.43C17.70,153.53 17.93,153.68 18.25,154.32C18.75,155.32 19.68,156.00 20.70,156.07L21.53,156.12L20.68,156.88C20.23,157.28 18.62,158.62 17.12,159.88C12.65,163.57 12.25,164.03 12.25,165.18C12.25,166.30 12.88,167.28 14.08,168.00L14.80,168.45L13.05,169.57C9.45,171.90 8.50,173.12 8.50,175.40C8.50,176.70 8.58,176.88 9.45,177.75C10.43,178.72 11.73,179.25 13.25,179.25C13.95,179.25 14.28,179.43 14.83,180.12C16.18,181.80 18.32,181.88 21.55,180.30L23.45,179.38L24.23,180.30C25.78,182.15 28.25,182.00 30.85,179.90C31.65,179.22 32.43,178.80 32.77,178.82C33.10,178.85 33.68,178.78 34.05,178.68L34.73,178.50L34.58,180.57C34.43,182.65 34.43,182.65 35.25,183.57C35.73,184.12 36.40,184.57 36.95,184.72C38.15,185.03 45.95,184.70 46.65,184.30C48.28,183.43 48.83,181.80 48.28,179.45L48.05,178.53L48.68,178.93C49.55,179.50 51.35,179.45 52.20,178.82L52.90,178.30L53.55,178.88C54.12,179.35 54.15,179.47 53.83,179.90C53.48,180.38 53.48,181.95 53.83,182.75C53.95,183.03 53.58,183.35 52.45,184.00C48.15,186.40 46.83,189.20 48.90,191.50C49.48,192.15 50.18,192.60 50.85,192.78C52.10,193.12 55.05,193.12 56.23,192.78C56.93,192.55 57.18,192.60 57.68,193.00C58.95,194.00 62.18,193.85 63.62,192.72C64.23,192.22 64.25,192.22 65.00,192.80C66.12,193.62 68.10,193.55 70.38,192.60L72.12,191.85L72.73,192.55C73.75,193.82 74.50,194.03 78.08,194.10C82.00,194.15 82.73,194.00 83.70,192.90L84.43,192.07L85.65,192.70C87.30,193.55 89.18,193.60 90.25,192.78L91.03,192.20L92.33,192.85C94.70,194.05 97.18,194.12 98.53,193.03C99.03,192.62 99.45,192.60 102.10,192.70C105.85,192.82 106.90,192.57 108.10,191.25C108.88,190.38 109.00,190.07 109.00,189.00C109.00,187.47 108.50,186.88 105.10,184.10C103.15,182.53 102.75,182.07 102.85,181.65C102.93,181.35 103.00,181.00 103.00,180.85C103.00,180.68 103.20,180.50 103.45,180.43C103.68,180.38 104.08,180.22 104.33,180.12C104.68,179.97 104.75,180.07 104.75,180.75C104.75,181.78 106.03,183.10 107.38,183.47C108.62,183.82 111.83,183.82 113.05,183.50C113.55,183.35 114.30,182.85 114.73,182.38L115.48,181.50L116.55,182.25C119.18,184.10 123.93,184.30 125.48,182.65C126.03,182.07 126.12,182.05 126.75,182.38C128.05,183.05 129.45,182.95 130.43,182.15L131.15,181.53L132.40,182.10C134.35,183.03 136.08,183.35 137.38,183.03C137.97,182.88 138.90,182.75 139.43,182.75C141.08,182.75 142.33,182.25 143.43,181.12C144.45,180.12 144.50,180.00 144.50,178.60C144.50,177.00 144.28,176.50 142.78,174.93C141.93,174.03 141.88,173.90 141.95,172.53C142.05,171.12 142.00,171.00 141.08,169.97C139.83,168.57 137.55,167.12 136.05,166.75C135.40,166.60 134.50,166.15 134.03,165.78L133.18,165.07L134.43,164.90C135.15,164.82 136.05,164.47 136.53,164.12C137.00,163.80 137.78,163.30 138.28,163.03C139.85,162.15 140.50,161.15 140.50,159.60C140.50,158.40 140.40,158.15 139.60,157.25C139.08,156.70 138.00,155.85 137.15,155.38C136.30,154.90 135.00,154.00 134.25,153.38C133.50,152.78 132.33,151.82 131.62,151.28C130.95,150.75 130.05,149.97 129.65,149.55C129.00,148.85 128.97,148.78 129.40,148.55C129.68,148.43 130.18,148.30 130.53,148.30C132.25,148.32 134.08,147.07 134.45,145.62C134.60,145.05 134.90,144.85 136.00,144.50C139.12,143.53 140.50,142.12 140.50,139.88C140.50,138.15 139.83,137.18 137.75,135.82C136.85,135.25 135.68,134.43 135.12,134.00C134.58,133.55 133.35,132.80 132.38,132.32C131.43,131.82 130.22,131.07 129.72,130.65C129.22,130.22 128.18,129.38 127.40,128.77L125.98,127.65L127.68,126.88C130.03,125.77 131.00,124.65 131.00,122.95C131.00,121.60 130.70,121.20 127.70,118.67C127.25,118.27 127.08,118.02 127.30,118.07C127.93,118.27 129.40,117.80 130.18,117.15C130.55,116.85 131.43,116.45 132.10,116.27C135.40,115.45 137.75,113.32 137.75,111.12C137.75,109.10 136.38,107.77 131.50,105.00C127.80,102.90 125.78,101.32 126.50,101.05C126.70,100.97 127.30,100.50 127.83,100.00C128.70,99.10 128.75,99.00 128.75,97.38L128.75,95.67L127.45,94.38L126.12,93.05L127.38,92.75C129.12,92.30 131.85,90.90 132.47,90.10C132.88,89.60 133.00,89.07 133.00,88.05C133.00,86.72 132.95,86.60 131.80,85.52C131.15,84.90 129.60,83.77 128.38,83.07C125.85,81.60 122.85,79.38 122.35,78.62C122.05,78.15 122.08,78.12 123.08,78.10C124.43,78.07 125.93,77.30 127.08,76.02C127.90,75.10 128.00,74.85 128.00,73.62C128.00,72.35 127.93,72.15 126.95,71.10C126.38,70.47 125.03,69.35 123.98,68.60C121.93,67.15 120.45,65.60 120.55,65.03C120.60,64.78 121.10,64.67 122.25,64.65C124.12,64.60 126.05,63.72 127.28,62.32C127.90,61.60 128.00,61.28 128.00,60.05L128.00,58.62L126.30,57.00C125.35,56.10 123.55,54.75 122.30,54.00C121.03,53.25 119.68,52.22 119.25,51.72L118.53,50.80L119.62,49.67C120.70,48.62 120.75,48.50 120.75,47.17C120.75,45.47 119.95,43.50 118.70,42.10C118.23,41.55 117.45,40.60 116.95,39.95L116.05,38.75L117.15,37.65C118.18,36.65 118.25,36.47 118.25,35.25C118.25,33.95 118.23,33.92 116.30,31.90C115.23,30.80 114.10,29.55 113.80,29.17L113.28,28.47L114.40,27.40C115.43,26.40 115.50,26.25 115.50,25.02C115.50,23.90 115.33,23.38 114.28,21.52C112.80,18.97 112.90,19.30 112.25,14.75C111.95,12.75 111.55,10.88 111.35,10.57C110.62,9.42 109.18,8.90 107.83,9.27ZM63.90,122.00C64.25,122.40 64.92,122.88 65.40,123.05C66.03,123.27 66.23,123.45 66.08,123.75C66.00,123.95 65.88,124.65 65.80,125.32C65.70,126.42 65.78,126.58 66.73,127.52L67.73,128.55L66.45,129.90L65.17,131.25L63.40,129.65C62.43,128.77 61.18,127.83 60.62,127.55C60.08,127.25 59.30,126.75 58.90,126.42L58.18,125.82L59.38,125.52C61.05,125.10 62.50,123.65 62.50,122.42C62.50,121.67 62.68,121.40 63.20,121.27C63.25,121.25 63.55,121.57 63.90,122.00ZM64.23,146.85C64.45,147.12 64.38,147.28 63.90,147.60C63.05,148.12 62.75,148.10 61.80,147.40C61.00,146.82 61.00,146.80 61.55,146.68C61.88,146.57 62.48,146.18 62.88,145.75L63.62,144.97L63.78,145.72C63.88,146.15 64.08,146.65 64.23,146.85Z"/>
<path id="color-1" fill="#4a9b62" d="M40.58,25.95C40.43,26.05 40.08,26.62 39.80,27.25C39.50,27.88 39.00,28.80 38.70,29.35C38.23,30.12 38.20,30.32 38.48,30.45C39.25,30.72 40.00,31.75 40.00,32.50C40.00,33.27 39.80,33.52 38.02,35.02C37.08,35.85 37.00,36.67 37.88,36.90C40.00,37.42 39.12,40.35 35.62,44.22C34.08,45.92 33.52,46.88 33.88,47.20C33.98,47.30 34.77,47.38 35.68,47.38C36.98,47.38 37.35,47.47 37.65,47.85C38.98,49.70 36.88,52.88 30.93,58.07C30.00,58.88 29.25,59.67 29.25,59.88C29.25,60.38 29.85,60.50 30.80,60.20C31.43,60.03 31.85,60.05 32.50,60.30C33.30,60.62 33.45,60.62 34.30,60.17C35.48,59.57 36.50,59.85 36.88,60.85C37.35,62.20 34.73,66.10 31.28,69.20C30.18,70.22 29.25,71.20 29.25,71.38C29.25,71.57 29.85,71.88 30.65,72.12C31.98,72.50 32.08,72.50 32.68,72.07C33.95,71.17 34.38,71.00 35.00,71.15C37.77,71.80 34.62,76.40 27.98,81.42C26.20,82.77 24.75,84.05 24.75,84.27C24.75,84.88 25.93,85.30 27.15,85.10C28.00,84.97 28.48,85.05 29.23,85.45L30.20,85.95L31.50,85.10C33.08,84.07 33.68,83.90 34.55,84.22C36.23,84.85 35.50,86.47 32.08,89.75C26.48,95.10 25.28,96.12 23.95,96.62C22.62,97.15 22.10,97.95 22.70,98.55C23.15,99.00 25.83,98.92 26.93,98.45C27.90,98.02 28.05,98.02 28.90,98.38C30.03,98.85 29.85,98.88 30.80,98.02C32.98,96.15 34.98,97.32 33.85,99.82C33.35,100.95 29.15,105.25 27.93,105.90C26.80,106.50 23.75,109.02 23.75,109.38C23.75,109.55 24.38,109.95 25.12,110.25L26.50,110.80L27.80,109.97C28.53,109.50 29.50,108.80 29.95,108.40C31.45,107.07 33.00,107.57 33.00,109.38C33.00,110.35 30.03,114.45 27.95,116.38C24.85,119.25 21.90,121.60 20.33,122.47C17.80,123.88 17.50,124.07 17.50,124.55C17.50,125.17 18.70,126.00 19.68,126.00C20.12,126.00 20.90,126.15 21.38,126.35C22.18,126.70 22.28,126.67 22.93,126.17C23.73,125.55 25.40,125.45 25.75,126.00C26.10,126.52 26.05,127.85 25.70,128.27C25.53,128.50 24.90,129.02 24.33,129.47C23.15,130.38 22.98,130.88 23.73,131.12C24.73,131.43 26.70,130.27 28.50,128.30C29.95,126.70 30.33,126.42 31.00,126.42C32.00,126.42 32.30,126.88 32.10,128.12C31.83,129.82 29.28,134.40 27.60,136.18C25.83,138.07 25.25,138.97 25.25,139.82C25.25,140.97 24.45,141.95 22.90,142.62C20.90,143.53 15.00,148.03 15.00,148.68C15.00,148.82 15.40,149.20 15.90,149.53C16.73,150.03 17.03,150.05 19.33,149.93C22.28,149.78 22.95,149.95 23.15,150.97C23.25,151.38 23.45,151.78 23.62,151.85C24.00,151.97 26.00,150.65 26.00,150.25C26.00,149.82 27.75,148.68 28.43,148.68C29.20,148.68 29.75,149.32 29.75,150.20C29.75,150.55 28.98,152.12 28.00,153.75C26.18,156.80 25.60,157.40 19.93,162.20C17.18,164.53 17.15,164.70 19.55,165.12C20.58,165.28 20.95,165.95 20.65,167.12C20.45,167.90 17.05,171.20 15.38,172.28C13.55,173.40 12.00,174.72 12.00,175.12C12.00,175.60 12.75,175.80 14.58,175.75C15.43,175.72 16.32,175.72 16.55,175.72C17.15,175.75 17.75,176.45 17.75,177.15C17.75,177.72 17.98,177.88 18.75,177.75C19.30,177.68 24.43,174.78 25.68,173.82C27.05,172.78 27.85,172.45 28.65,172.65C29.80,172.95 29.60,174.65 28.28,175.85C27.15,176.88 28.05,177.60 29.23,176.60C29.65,176.25 30.05,175.75 30.12,175.47C30.38,174.70 31.38,174.43 32.40,174.88C33.45,175.30 33.77,175.05 35.40,172.50C36.38,170.95 37.02,170.57 38.08,170.97C39.00,171.32 39.05,171.72 38.60,176.53C38.35,179.00 38.25,181.07 38.33,181.18C38.53,181.35 43.62,181.30 44.30,181.10C44.78,180.95 44.75,179.85 44.23,174.30C43.95,171.38 44.05,170.82 44.93,170.47C46.03,170.07 46.65,170.43 47.50,172.03C48.50,173.90 48.83,174.07 50.03,173.45C51.25,172.82 51.68,172.95 54.05,174.78C56.50,176.65 56.48,176.65 57.58,175.82C58.80,174.90 58.73,174.62 57.20,174.10C55.78,173.62 53.62,172.22 53.25,171.50C52.65,170.38 52.95,169.32 54.23,167.97C55.43,166.72 55.45,166.62 55.35,165.53C55.18,163.97 55.40,163.78 57.35,163.47C58.28,163.35 59.40,163.07 59.83,162.85C60.83,162.35 62.25,161.00 62.25,160.57C62.25,160.40 61.43,159.80 60.43,159.25C58.20,158.05 56.60,156.62 56.35,155.62C56.05,154.43 56.65,153.72 58.95,152.62C60.08,152.07 61.00,151.53 61.00,151.38C61.00,151.22 60.12,150.53 59.03,149.80C56.48,148.12 54.23,145.70 52.40,142.68C50.80,140.00 50.70,139.20 51.93,138.72C53.00,138.32 53.75,138.68 55.55,140.40C56.48,141.28 57.43,142.00 57.70,142.00C57.98,142.00 58.35,142.05 58.55,142.12C58.73,142.20 59.03,142.15 59.23,142.03C59.53,141.82 59.45,141.55 58.85,140.40L58.12,139.03L58.68,137.93C59.03,137.22 59.83,136.30 60.85,135.47C61.75,134.72 62.50,134.00 62.50,133.85C62.50,133.45 59.50,130.88 58.25,130.25C56.30,129.25 53.93,126.62 53.30,124.80C52.95,123.77 52.33,122.70 51.50,121.72C49.75,119.60 49.50,118.02 50.88,117.50C51.85,117.12 52.62,117.57 53.80,119.17C56.00,122.10 56.88,122.67 58.35,122.10C58.95,121.88 58.85,121.57 57.75,120.20C55.65,117.57 57.08,115.88 60.08,117.38L61.43,118.07L62.73,117.38C63.45,116.97 64.00,116.50 64.00,116.27C63.98,115.25 60.95,112.95 58.35,111.97C56.83,111.40 56.25,110.75 56.25,109.57C56.25,108.82 56.78,108.00 57.28,108.00C57.40,108.00 57.50,107.85 57.50,107.65C57.50,107.42 56.75,107.05 55.50,106.62C52.80,105.72 51.33,104.52 49.48,101.70C47.58,98.80 47.48,97.42 49.12,97.12C49.93,96.97 50.30,97.15 51.98,98.42C53.10,99.27 53.62,99.27 53.88,98.45C54.10,97.80 54.98,97.52 55.83,97.82C56.40,98.02 56.68,97.97 57.20,97.57C57.58,97.30 58.28,96.95 58.75,96.80C61.12,95.95 61.30,95.25 59.33,94.30C54.35,91.95 48.40,87.02 47.83,84.80C47.62,83.95 48.03,82.97 48.65,82.72C49.23,82.52 50.68,83.12 51.75,84.00C52.35,84.50 52.43,84.50 53.45,84.10C54.30,83.75 54.68,83.72 55.43,83.95C56.40,84.25 57.25,84.00 57.25,83.38C57.25,83.20 56.50,82.47 55.58,81.77C50.58,78.02 47.38,75.00 46.75,73.47C45.88,71.40 47.93,70.42 49.90,71.97C50.38,72.35 50.68,72.40 51.33,72.22C51.75,72.12 52.43,71.95 52.83,71.88C53.43,71.75 53.83,71.00 53.28,71.00C53.15,71.00 51.78,69.85 50.25,68.42C45.40,64.00 43.83,61.03 45.93,60.22C46.35,60.07 46.80,60.12 47.43,60.38C47.95,60.60 48.53,60.70 48.73,60.62C48.93,60.55 49.62,60.60 50.25,60.78C51.23,61.03 51.53,61.00 52.23,60.65C52.68,60.40 53.00,60.07 52.95,59.90C52.90,59.72 51.55,58.35 49.93,56.88C45.53,52.88 43.48,50.10 43.85,48.65C44.05,47.85 45.05,47.40 46.15,47.62C48.15,48.00 48.20,47.15 46.30,44.85C41.43,38.97 40.98,36.85 44.58,36.52C44.68,36.50 44.75,36.27 44.75,36.00C44.75,35.65 44.38,35.25 43.65,34.82C41.85,33.75 41.40,31.77 42.65,30.62L43.30,30.02L42.35,28.02C41.38,26.02 41.05,25.65 40.58,25.95ZM77.68,81.82C77.48,82.00 77.08,82.57 76.75,83.15L76.20,84.17L76.88,85.15C78.05,86.85 77.60,88.67 75.15,92.32C74.53,93.27 74.00,94.15 74.00,94.27C74.00,94.52 74.05,94.55 75.25,94.65C78.03,94.88 76.73,98.55 71.70,104.65C70.90,105.62 70.25,106.52 70.25,106.65C70.25,106.77 70.58,107.10 70.98,107.32C71.70,107.75 71.73,107.75 72.35,107.07C73.10,106.25 75.08,106.07 75.50,106.75C76.58,108.45 74.90,111.40 70.33,115.88C68.35,117.80 66.75,119.50 66.75,119.67C66.75,120.35 68.60,120.27 70.60,119.50C71.45,119.17 72.42,119.55 72.80,120.35C73.15,121.15 72.73,122.27 71.73,123.12C71.03,123.70 70.78,124.22 71.20,124.27C73.12,124.42 73.75,124.77 73.75,125.67C73.75,126.80 71.50,129.80 68.42,132.77C65.12,136.00 65.08,136.05 64.10,137.12C63.62,137.62 63.25,138.20 63.25,138.40C63.25,138.95 65.05,139.35 66.08,139.03C66.55,138.85 67.23,138.80 67.58,138.88C68.03,139.00 68.33,138.90 68.67,138.52C69.67,137.45 71.45,137.35 71.85,138.38C72.38,139.78 71.33,141.62 68.90,143.62C67.65,144.65 67.48,145.12 68.25,145.38C69.33,145.72 69.17,147.25 67.95,148.65C67.05,149.68 63.85,152.10 63.12,152.35C62.62,152.50 61.58,155.15 61.88,155.45C61.95,155.53 62.68,155.60 63.45,155.60C64.50,155.62 65.03,155.75 65.35,156.05C65.92,156.65 66.15,156.62 66.92,155.85C68.03,154.75 69.50,154.50 70.05,155.35C71.42,157.43 65.55,165.15 59.48,169.30C57.80,170.45 57.90,171.00 59.83,171.00C60.28,171.00 61.10,171.22 61.68,171.50C62.73,171.97 62.75,171.97 63.85,171.50C65.23,170.88 66.40,171.18 66.67,172.20C67.05,173.68 63.98,177.20 60.50,179.28C59.60,179.80 58.68,180.40 58.45,180.57C57.98,180.95 57.85,181.50 58.25,181.50C58.65,181.50 58.83,182.72 58.53,183.47C58.15,184.32 56.68,185.57 54.50,186.88C51.83,188.45 51.48,188.93 52.60,189.45C53.25,189.75 55.85,189.47 57.15,189.00C58.03,188.65 59.18,188.90 59.50,189.50C59.98,190.40 60.68,190.35 62.45,189.25C63.38,188.65 64.40,187.93 64.75,187.62C66.40,186.12 68.50,186.75 68.50,188.72C68.50,189.00 68.65,189.25 68.85,189.32C69.30,189.50 71.33,188.25 72.67,186.93C73.45,186.18 73.92,185.93 74.53,185.93C75.73,185.93 76.08,186.55 75.92,188.55C75.80,190.53 75.78,190.50 78.33,190.50C80.75,190.50 80.90,190.38 80.50,188.78C80.12,187.18 80.33,186.30 81.15,186.00C81.95,185.68 83.30,186.22 83.88,187.07C84.45,187.97 86.83,189.55 87.30,189.38C87.53,189.28 87.75,188.90 87.83,188.50C88.08,187.25 89.80,187.20 91.38,188.40C92.53,189.25 95.05,190.30 95.65,190.15C95.95,190.07 96.28,189.72 96.35,189.40C96.55,188.57 97.62,188.38 99.28,188.85C101.48,189.53 105.00,189.32 104.73,188.55C104.68,188.43 103.25,187.18 101.58,185.78C97.98,182.82 97.65,182.38 97.88,181.05L98.03,180.10L96.10,179.25C93.33,178.00 90.03,174.62 90.00,172.97C89.98,171.45 91.33,170.93 93.03,171.82C93.80,172.25 94.30,172.38 94.53,172.22C94.73,172.10 95.62,171.78 96.58,171.50C97.50,171.20 98.25,170.82 98.25,170.68C98.25,170.20 96.80,168.93 95.38,168.10C94.70,167.72 92.95,166.22 91.50,164.75C89.28,162.53 88.65,161.72 87.43,159.43C85.83,156.47 85.53,155.38 86.08,154.62C86.62,153.90 88.00,154.00 88.98,154.82C89.95,155.65 89.90,155.65 92.38,154.80C95.08,153.88 95.08,153.72 92.30,150.90C91.08,149.65 89.55,147.95 88.93,147.12C88.30,146.28 87.60,145.45 87.35,145.25C87.12,145.05 86.25,143.88 85.45,142.65C83.98,140.43 83.65,139.20 84.23,138.25C84.68,137.55 86.12,137.82 87.23,138.82C88.43,139.90 88.23,139.85 89.73,139.38C90.35,139.18 91.18,138.95 91.58,138.88C92.55,138.68 92.45,138.45 90.53,136.57C89.60,135.62 88.60,134.43 88.30,133.88C88.03,133.32 87.28,132.15 86.60,131.25C82.28,125.40 81.62,123.52 83.60,122.77C84.15,122.55 84.50,122.60 85.43,123.00C86.05,123.27 86.68,123.50 86.83,123.50C87.30,123.50 89.00,122.20 89.00,121.82C89.00,121.50 87.73,119.88 84.35,115.85C83.65,115.00 82.88,113.77 82.62,113.10C82.38,112.42 81.78,111.00 81.30,109.92C79.98,107.02 80.68,105.72 83.00,106.77C83.90,107.17 84.23,107.22 84.93,106.97C86.05,106.62 85.98,106.30 84.40,104.45C81.48,101.00 79.50,97.82 79.50,96.57C79.50,95.50 79.85,95.17 81.08,95.12C83.20,95.02 83.20,94.82 81.23,92.22C79.45,89.88 79.05,89.00 78.85,87.02C78.70,85.65 78.73,85.50 79.38,84.85C79.93,84.30 80.00,84.07 79.78,83.77C79.62,83.55 79.30,83.02 79.08,82.57C78.60,81.62 78.20,81.42 77.68,81.82Z"/>
<path id="color-2" fill="#2f6e47" d="M108.58,19.67C108.40,19.75 108.25,20.02 108.25,20.27C108.25,20.92 107.68,22.00 106.60,23.42C105.50,24.85 105.53,25.17 106.75,25.52C107.53,25.77 107.80,26.00 108.05,26.65C108.53,27.97 109.08,27.97 109.75,26.62C109.98,26.20 110.50,25.72 110.95,25.52C111.38,25.32 111.75,25.05 111.75,24.90C111.78,24.47 109.40,19.80 109.12,19.67C109.00,19.62 108.73,19.62 108.58,19.67ZM108.60,28.20C108.48,28.30 108.05,29.02 107.62,29.85C107.23,30.65 106.12,32.12 105.20,33.12C104.25,34.12 103.50,35.05 103.50,35.20C103.50,35.57 104.20,35.75 104.83,35.52C105.85,35.15 106.75,35.82 106.75,36.97C106.75,37.80 104.48,41.57 102.28,44.38C101.30,45.60 100.50,46.75 100.50,46.90C100.50,47.45 101.28,47.47 102.25,46.97C103.30,46.42 104.43,46.47 104.80,47.07C105.85,48.75 102.80,53.40 98.88,56.15C92.83,60.38 92.45,61.07 96.30,60.95C98.03,60.88 98.28,60.95 98.75,61.45C99.45,62.17 99.58,62.15 100.78,61.07C102.38,59.62 104.25,59.92 104.25,61.60C104.25,62.35 101.75,66.30 100.15,68.12C99.40,69.00 97.70,70.57 96.38,71.65C95.08,72.75 94.00,73.80 94.00,74.00C94.00,74.25 94.68,74.67 95.88,75.17L97.75,75.95L98.80,75.15C99.35,74.72 100.03,74.22 100.30,74.03C100.95,73.55 102.03,73.60 102.43,74.15C103.03,74.97 102.78,75.85 101.23,78.17C99.05,81.45 95.05,85.12 91.28,87.32C89.48,88.38 89.18,88.88 89.95,89.50C90.43,89.90 90.88,89.97 92.25,89.92C93.83,89.88 94.00,89.92 94.60,90.55C95.43,91.47 95.95,91.42 97.40,90.38C100.23,88.32 101.73,88.35 101.75,90.40C101.75,91.92 98.10,95.62 95.68,96.55C94.12,97.12 93.00,98.12 93.00,98.90C93.00,100.07 93.43,99.95 98.15,97.42C99.95,96.45 101.25,97.80 100.38,99.75C99.60,101.45 93.73,107.17 91.62,108.30C89.90,109.20 88.73,110.25 87.43,112.02C86.62,113.10 86.58,113.42 87.25,113.62C87.53,113.72 88.25,114.27 88.85,114.90C90.03,116.10 90.48,116.20 91.83,115.62C93.03,115.12 93.95,115.47 94.15,116.47C94.25,116.88 94.45,117.27 94.65,117.35C95.00,117.47 97.23,115.85 97.80,115.02C98.93,113.42 101.25,113.97 101.25,115.85C101.25,118.30 95.20,126.83 92.08,128.77C91.05,129.43 91.05,129.75 92.03,130.75C92.75,131.45 92.80,131.60 92.62,132.65C92.43,134.10 93.12,135.10 95.33,136.50C96.18,137.02 97.10,137.82 97.38,138.22C98.05,139.28 98.38,139.32 99.20,138.62C101.10,137.02 102.75,137.40 102.75,139.43C102.75,140.22 100.95,143.30 99.65,144.70C98.58,145.88 96.25,147.55 95.33,147.85C94.43,148.12 94.62,148.53 96.73,150.65C99.62,153.53 99.65,154.20 97.18,157.07C95.38,159.12 94.73,160.43 95.25,160.75C95.45,160.88 96.50,161.05 97.62,161.12C99.45,161.28 99.80,161.25 101.23,160.62C103.55,159.65 104.75,160.07 104.75,161.90C104.75,162.40 104.23,163.10 102.62,164.72C101.45,165.93 100.50,167.00 100.50,167.12C100.50,167.22 101.18,168.03 102.00,168.90C103.53,170.50 103.75,171.07 103.20,172.07C102.73,172.97 100.58,174.30 98.43,175.00C97.20,175.40 97.28,175.90 98.73,176.68C99.50,177.07 100.25,177.25 101.20,177.25C102.55,177.25 102.60,177.22 104.10,175.72C105.75,174.07 106.40,173.70 107.23,173.93C108.15,174.18 108.45,175.15 108.30,177.60C108.18,180.10 108.25,180.25 109.93,180.25C111.73,180.25 111.75,180.20 111.75,177.78C111.75,175.18 111.90,174.88 113.28,174.88C114.20,174.88 114.43,175.00 114.98,175.75C116.80,178.20 119.53,180.25 120.93,180.25C122.33,180.25 122.43,179.93 121.62,178.28C120.80,176.55 120.95,175.70 122.12,175.40C122.85,175.22 124.48,175.88 124.68,176.43C124.88,176.95 127.25,178.47 127.65,178.32C127.83,178.25 128.05,177.97 128.12,177.72C128.22,177.45 128.58,177.10 128.95,176.97C129.50,176.75 130.03,176.95 132.65,178.28C135.20,179.57 135.83,179.80 136.53,179.65C137.00,179.57 137.88,179.43 138.50,179.35C140.55,179.10 140.75,179.03 140.75,178.43C140.75,177.78 139.40,176.40 137.93,175.53C136.08,174.40 135.75,173.45 136.88,172.40C137.22,172.07 137.50,171.72 137.50,171.60C137.50,171.28 135.40,170.00 134.85,170.00C133.62,169.97 132.05,168.85 128.83,165.70C126.98,163.88 125.28,162.05 125.08,161.65C124.25,160.05 125.48,159.07 127.23,159.93C127.93,160.30 128.33,160.35 129.03,160.18C129.78,159.97 130.12,160.05 131.53,160.72C133.47,161.68 133.85,161.68 135.20,160.75C135.80,160.35 136.40,160.00 136.55,159.95C137.15,159.75 136.47,159.03 134.95,158.15C134.08,157.68 132.70,156.70 131.88,156.00C131.05,155.32 129.93,154.43 129.38,154.05C126.73,152.15 121.20,145.80 120.28,143.57C119.85,142.50 120.08,141.60 120.85,141.40C121.80,141.18 122.60,141.60 124.28,143.25C126.12,145.05 127.23,145.47 128.78,145.03C130.03,144.65 130.20,144.25 129.50,143.28C128.25,141.62 129.58,140.45 131.88,141.12C133.60,141.62 134.40,141.60 135.70,141.00C137.33,140.28 137.18,139.55 135.20,138.35C134.33,137.82 133.25,137.10 132.80,136.70C132.35,136.32 131.18,135.60 130.18,135.10C129.20,134.60 127.93,133.80 127.38,133.35C126.83,132.88 125.62,131.90 124.73,131.15C122.98,129.70 121.65,128.22 120.18,126.02C117.98,122.82 120.03,121.10 123.05,123.62C123.93,124.35 124.88,124.42 126.12,123.82C127.23,123.30 127.25,122.65 126.20,122.10C125.00,121.47 119.40,115.80 118.78,114.57C117.80,112.62 118.15,111.15 119.60,111.15C120.30,111.15 120.73,111.40 121.88,112.47C123.20,113.72 123.33,113.77 124.25,113.62C124.95,113.50 125.53,113.60 126.35,113.97C127.58,114.50 127.60,114.50 128.38,113.38C128.65,112.97 129.00,112.88 130.30,112.88C131.95,112.88 133.30,112.32 133.85,111.45C134.25,110.77 133.53,110.20 129.33,107.80C125.70,105.75 125.33,105.45 122.38,102.47C119.60,99.67 119.25,99.25 119.25,98.47C119.25,97.22 119.58,96.88 120.70,96.88C121.38,96.88 122.00,97.10 122.70,97.60C123.80,98.35 124.88,98.35 125.18,97.60C125.40,97.02 124.60,96.35 122.58,95.32C120.55,94.32 117.40,91.32 117.10,90.15C116.73,88.62 117.88,87.70 119.33,88.38C119.78,88.57 120.48,88.97 120.90,89.25C121.62,89.72 121.70,89.72 122.70,89.32C123.68,88.95 123.83,88.95 124.75,89.32C125.62,89.67 125.90,89.67 126.70,89.40C129.53,88.38 129.62,88.00 127.38,86.62C121.85,83.25 120.43,82.07 118.23,79.10C116.15,76.30 115.62,75.27 115.85,74.40C116.18,73.12 117.60,73.07 119.20,74.25C119.80,74.70 120.00,74.72 120.70,74.47C121.28,74.28 121.70,74.28 122.30,74.47C122.93,74.70 123.20,74.67 123.68,74.35C124.58,73.78 124.30,73.25 122.38,71.88C119.58,69.88 116.45,66.47 114.70,63.53C114.00,62.35 113.83,61.17 114.23,60.50C114.62,59.90 116.10,60.07 116.98,60.82L117.78,61.47L118.78,60.95C119.73,60.47 119.83,60.45 120.83,60.85C121.43,61.07 122.10,61.25 122.35,61.25C122.98,61.25 124.25,60.45 124.25,60.07C124.25,59.65 122.12,58.00 119.70,56.57C117.58,55.32 115.98,53.65 113.98,50.62C112.20,47.92 113.10,45.80 115.60,46.85C117.33,47.57 117.43,46.10 115.78,44.20C113.70,41.85 111.00,37.95 111.00,37.35C111.00,36.35 111.43,35.80 112.30,35.62C114.48,35.20 114.48,35.20 112.28,32.88C111.25,31.75 110.35,30.47 109.98,29.65C109.38,28.27 109.03,27.90 108.60,28.20Z"/>
</svg>
