<svg xmlns="http://www.w3.org/2000/svg" viewBox="0 0 104 214" width="1.944in" height="4.000in">
<title>pine-tree</title>
<path id="silhouette" fill="#000000" d="M51.15,8.30C50.93,8.62 50.75,9.38 50.75,10.05C50.75,10.67 50.60,11.97 50.40,12.92C50.20,13.85 49.98,15.50 49.88,16.60C49.70,18.52 49.68,18.57 48.35,20.02C46.55,22.00 46.55,22.97 48.43,23.47C50.03,23.90 49.35,25.85 46.68,28.62C45.58,29.77 44.58,30.88 44.48,31.05C44.12,31.60 44.23,32.95 44.65,33.35C45.12,33.82 45.35,33.85 46.43,33.45C47.58,33.02 47.95,33.42 47.48,34.55C47.12,35.40 43.68,39.00 41.83,40.45C40.33,41.60 39.35,43.32 39.70,44.15C40.12,45.05 42.75,45.05 44.00,44.12C45.00,43.40 45.75,43.30 45.75,43.92C45.75,45.50 40.15,50.70 37.43,51.70C35.83,52.25 32.50,55.10 32.50,55.88C32.50,56.92 33.83,57.75 35.50,57.75C37.27,57.75 37.75,57.90 37.75,58.50C37.75,60.22 38.88,60.17 41.08,58.38C42.90,56.88 43.50,56.67 43.50,57.57C43.50,58.32 40.80,61.50 38.68,63.25C37.83,63.97 36.60,65.20 35.95,66.00C35.15,66.97 34.35,67.62 33.38,68.12C31.70,68.92 31.23,69.67 31.83,70.57C32.43,71.50 33.62,71.90 34.60,71.50C36.15,70.88 36.90,70.90 37.52,71.60C38.25,72.45 38.75,72.30 40.43,70.72C41.75,69.47 42.40,69.22 42.65,69.88C42.88,70.42 40.68,72.90 39.10,73.90C38.38,74.35 37.30,75.17 36.68,75.70C36.05,76.22 35.12,76.92 34.60,77.25C34.05,77.57 33.18,78.20 32.62,78.65C32.08,79.07 30.43,80.22 28.98,81.20C27.50,82.17 26.08,83.28 25.78,83.65C24.53,85.22 25.53,86.57 28.15,86.85C29.68,87.00 29.90,86.97 30.78,86.38C31.70,85.72 32.75,85.60 32.93,86.15C32.98,86.30 32.62,86.82 32.12,87.32C31.20,88.27 31.18,88.85 32.05,89.07C32.58,89.22 33.83,88.72 34.12,88.25C34.55,87.57 35.62,87.30 36.68,87.57L37.73,87.85L39.23,86.42C40.78,84.92 41.18,84.75 41.43,85.38C41.78,86.32 37.12,91.75 34.50,93.45C33.75,93.95 32.35,94.75 31.38,95.25C29.45,96.22 29.20,96.72 30.45,97.05C30.88,97.17 31.25,97.42 31.25,97.62C31.25,98.02 31.23,98.05 26.53,101.12C22.28,103.92 21.75,104.38 21.75,105.25C21.75,105.88 22.65,107.00 23.15,107.00C23.28,107.00 23.83,107.30 24.35,107.65C25.53,108.45 27.10,108.35 29.20,107.32C30.93,106.50 31.23,106.80 30.25,108.32C28.98,110.35 29.20,110.65 31.45,109.90C33.80,109.10 35.65,108.12 37.30,106.85C39.50,105.12 40.20,105.52 38.75,107.62C37.52,109.42 32.50,114.47 31.28,115.17C30.65,115.55 29.50,116.42 28.75,117.12C28.00,117.82 26.43,118.97 25.25,119.67C18.57,123.60 17.55,124.60 18.73,126.02C19.15,126.57 19.45,126.62 21.55,126.70C24.30,126.80 24.60,126.97 23.65,127.97C22.65,129.00 22.85,129.60 24.20,129.70C25.00,129.75 25.55,129.62 26.38,129.15C27.93,128.22 28.10,128.30 27.90,129.60C27.78,130.43 27.83,130.80 28.12,131.10C28.75,131.72 29.20,131.60 30.53,130.40C31.18,129.80 32.12,129.12 32.58,128.90C33.05,128.70 33.98,128.05 34.65,127.50C35.90,126.47 36.35,126.30 36.62,126.77C37.02,127.40 33.70,130.95 29.43,134.50C26.43,136.97 25.75,137.43 24.00,138.12C22.08,138.90 21.68,139.30 22.03,140.18C22.45,141.27 22.30,141.45 20.10,142.27C18.45,142.90 17.65,143.38 16.60,144.38C15.05,145.82 15.03,145.95 15.88,146.95C16.70,147.93 18.48,148.32 20.80,148.10C22.23,147.97 22.50,148.00 22.50,148.30C22.50,148.52 22.33,148.82 22.10,149.00C21.43,149.57 21.75,150.62 22.62,150.70C23.38,150.78 24.35,150.20 26.60,148.43C27.60,147.60 28.12,147.72 27.93,148.75C27.48,150.95 29.18,151.38 30.23,149.30C30.50,148.75 31.28,147.97 32.05,147.45C32.80,146.93 33.73,146.18 34.12,145.75C35.73,144.07 36.33,145.20 34.80,147.05C29.65,153.25 24.58,157.55 20.20,159.40C18.25,160.20 18.07,160.47 18.90,161.15C19.28,161.45 19.48,161.82 19.40,161.97C19.30,162.12 17.93,162.88 16.32,163.62C12.62,165.38 11.75,166.03 11.75,167.03C11.75,168.10 12.93,168.75 14.90,168.75C16.28,168.75 16.50,168.82 16.85,169.38C17.55,170.45 18.70,170.25 22.05,168.47C24.12,167.40 24.60,168.15 23.00,170.03C21.85,171.38 21.75,171.88 22.58,172.10C23.90,172.45 24.93,172.25 26.00,171.45C26.58,171.00 27.35,170.43 27.70,170.20C28.05,169.97 28.80,169.32 29.35,168.80C30.95,167.28 31.70,166.85 31.90,167.35C32.10,167.90 29.73,171.05 27.12,173.62C24.35,176.40 20.75,178.75 19.33,178.75C19.07,178.75 18.32,179.03 17.62,179.35C16.95,179.68 16.07,180.07 15.68,180.22C15.20,180.40 15.00,180.68 15.00,181.10C15.00,182.00 15.88,182.50 17.43,182.50C18.12,182.50 18.80,182.62 18.88,182.78C19.12,183.18 17.35,184.68 14.50,186.50C8.05,190.62 7.78,190.88 8.22,192.07C8.75,193.47 10.40,193.78 13.68,193.10C15.78,192.68 16.45,192.88 15.50,193.68C14.08,194.88 14.38,195.75 16.23,195.75C16.85,195.75 17.65,195.60 18.00,195.40C18.35,195.22 19.50,194.60 20.60,194.03C21.68,193.45 23.43,192.38 24.50,191.62C26.58,190.15 27.10,190.00 27.48,190.70C27.75,191.22 27.23,192.25 25.98,193.68C25.18,194.60 25.25,195.18 26.18,195.40C27.05,195.62 29.38,195.03 30.30,194.32C31.28,193.62 32.02,193.60 32.62,194.25C32.88,194.53 33.33,194.75 33.62,194.75C34.23,194.75 35.75,193.70 36.73,192.65C37.48,191.85 37.93,191.82 38.30,192.60C38.88,193.90 39.73,193.68 41.93,191.60C42.80,190.78 43.88,189.45 44.33,188.62C44.90,187.55 45.30,187.10 45.73,187.05L46.30,186.95L46.15,189.80C45.80,195.55 45.48,199.18 45.10,201.38C44.40,205.47 44.40,205.53 44.78,205.78C44.98,205.90 47.85,206.00 51.15,206.00C58.35,206.00 58.03,206.12 57.43,203.43C56.85,200.95 56.05,193.28 55.95,189.50C55.85,185.50 56.12,185.35 57.93,188.32C59.38,190.68 61.55,193.12 62.05,192.95C63.38,192.45 63.50,192.45 64.20,193.25C65.40,194.68 67.73,196.25 68.62,196.25C69.55,196.25 70.75,195.43 70.75,194.80C70.75,194.55 70.15,193.50 69.40,192.43C68.67,191.38 67.92,190.15 67.75,189.75C67.45,189.03 67.55,188.25 67.92,188.25C68.05,188.25 69.45,189.55 71.08,191.12C73.10,193.12 74.17,194.00 74.58,194.00C75.48,194.00 75.75,193.55 75.58,192.32C75.40,190.93 75.95,190.85 77.08,192.15C77.90,193.10 81.33,195.43 82.65,195.97C84.53,196.72 87.85,195.78 86.40,194.90C84.18,193.60 83.08,191.53 85.15,192.62C85.55,192.82 86.18,193.00 86.53,193.00C86.90,193.00 88.05,193.28 89.10,193.62C91.93,194.55 93.62,194.43 94.95,193.20C96.18,192.05 95.12,190.75 91.23,188.55C87.70,186.55 86.90,185.80 86.90,184.45C86.88,183.38 86.88,183.38 85.28,182.60C82.80,181.38 76.75,175.90 76.75,174.90C76.75,174.30 77.45,174.43 78.48,175.20C78.98,175.60 80.03,176.28 80.83,176.72C82.40,177.62 83.00,177.53 83.00,176.38C83.00,175.53 83.23,175.50 84.65,176.20C85.95,176.82 86.00,176.85 86.88,176.43C87.38,176.20 88.05,176.00 88.40,176.00C89.08,176.00 90.25,175.00 90.25,174.43C90.25,173.68 88.88,172.57 83.25,168.82C78.73,165.80 75.45,162.75 71.95,158.20C69.85,155.50 70.55,154.88 72.98,157.25C74.75,159.00 75.83,159.60 77.93,160.03C79.12,160.28 79.62,160.28 80.10,160.05C80.95,159.68 80.93,159.20 79.98,157.82C78.88,156.18 79.40,155.38 80.85,156.53C81.60,157.12 84.48,158.00 85.75,158.03C86.90,158.05 89.43,157.07 89.75,156.50C90.38,155.32 89.70,154.43 86.62,152.40C83.73,150.50 83.83,150.60 84.20,150.07C85.12,148.72 84.65,148.15 82.18,147.75C81.18,147.57 79.95,147.22 79.43,146.95C78.35,146.43 71.83,140.30 71.25,139.27C71.05,138.93 70.28,138.05 69.55,137.32C67.35,135.12 67.92,134.47 70.35,136.45C71.15,137.10 72.05,137.77 72.35,137.97C72.62,138.18 73.30,138.60 73.80,138.95L74.75,139.57L76.25,138.85C77.08,138.45 77.75,137.97 77.75,137.77C77.75,137.57 77.30,136.95 76.75,136.35C75.15,134.60 75.53,133.77 77.45,134.82C78.98,135.65 81.53,136.50 82.50,136.50C83.90,136.50 85.75,135.00 85.75,133.85C85.75,133.18 83.58,131.25 82.03,130.55C80.38,129.80 79.75,129.32 79.75,128.75C79.75,128.20 80.45,127.60 81.33,127.40C83.12,126.97 81.73,125.27 78.05,123.47C74.60,121.77 68.83,116.45 66.20,112.57C64.60,110.25 65.28,110.02 67.55,112.12C69.15,113.60 69.45,113.70 70.38,113.10C70.95,112.72 71.05,112.72 71.65,113.15C73.65,114.57 74.88,114.95 75.80,114.47C76.23,114.25 76.28,114.05 76.12,113.07C75.98,112.02 76.00,111.95 76.42,112.12C76.67,112.22 77.45,112.38 78.18,112.45C81.18,112.72 83.08,111.85 83.08,110.25C83.08,109.22 81.28,107.42 78.38,105.55C77.43,104.92 75.88,103.77 74.98,103.02C74.08,102.25 72.78,101.22 72.12,100.75C70.42,99.52 70.35,99.15 71.90,99.32C72.88,99.42 73.25,99.62 73.78,100.22C74.42,101.00 75.55,101.27 75.88,100.72C76.20,100.22 75.73,99.22 75.05,98.95C74.67,98.80 73.83,98.12 73.12,97.47C72.45,96.82 70.75,95.70 69.38,94.97C65.70,93.02 62.78,90.02 64.12,89.57C64.28,89.52 65.15,90.05 66.10,90.75C67.85,92.02 68.62,92.25 69.48,91.70C69.85,91.47 70.17,91.47 70.95,91.70C72.42,92.15 73.17,92.07 74.45,91.32C75.83,90.55 76.00,90.32 76.00,89.52C76.00,88.95 74.23,87.00 73.70,87.00C73.17,87.00 70.20,85.40 70.08,85.05C69.98,84.82 70.17,84.50 70.58,84.20C72.00,83.15 71.20,81.85 67.80,79.60C65.42,78.03 63.23,76.05 61.73,74.17C60.10,72.12 60.68,71.10 62.40,73.00C63.53,74.25 65.42,75.50 66.17,75.50C66.67,75.50 66.75,75.38 66.75,74.62C66.75,73.60 67.05,73.53 68.67,74.15C70.55,74.88 73.00,73.82 73.00,72.30C73.00,71.35 72.90,71.25 70.42,69.53C67.35,67.38 65.30,65.67 64.12,64.28C63.58,63.60 62.68,62.67 62.15,62.22C61.00,61.22 58.75,58.57 58.75,58.22C58.75,57.57 59.60,57.77 60.68,58.65C62.50,60.17 63.08,60.50 63.95,60.50C64.78,60.50 64.83,60.42 64.85,59.12C64.88,58.47 64.95,58.38 65.50,58.45C68.08,58.80 68.65,58.75 69.45,58.25C70.53,57.60 70.92,56.70 70.55,55.88C70.25,55.20 70.15,55.12 65.05,51.77C60.78,48.95 57.10,45.05 57.93,44.22C58.12,44.02 58.53,44.15 59.35,44.62C60.80,45.47 62.50,45.35 63.15,44.38C63.70,43.52 63.45,43.15 59.48,39.10C56.85,36.40 56.00,35.40 56.00,34.92C56.00,33.95 56.38,33.90 57.70,34.65C59.20,35.47 59.75,35.35 59.75,34.15C59.75,33.55 59.50,32.95 58.93,32.20C57.85,30.80 55.25,26.95 54.68,25.92C54.08,24.82 54.20,23.90 55.00,23.80C55.83,23.67 56.50,23.05 56.50,22.40C56.50,21.88 56.08,21.20 54.68,19.42C54.12,18.72 53.88,17.97 53.48,15.70C53.05,13.38 52.58,9.95 52.53,8.57C52.50,8.40 52.28,8.15 52.03,8.00C51.62,7.80 51.45,7.85 51.15,8.30ZM52.65,100.10C53.40,102.77 53.25,103.02 51.00,102.97C49.58,102.95 49.00,102.80 49.00,102.42C49.00,102.27 49.45,101.20 50.03,100.05C50.88,98.30 51.12,97.97 51.58,98.05C52.00,98.10 52.20,98.47 52.65,100.10ZM51.95,129.68C52.10,129.93 52.28,130.75 52.38,131.50C52.48,132.25 52.78,133.40 53.03,134.05L53.48,135.20L52.48,136.47C51.90,137.18 51.35,137.75 51.25,137.75C51.05,137.75 50.58,136.88 49.73,134.97C49.60,134.72 49.73,134.20 49.98,133.70C50.23,133.25 50.53,132.25 50.62,131.50C50.83,130.02 51.12,129.25 51.50,129.25C51.62,129.25 51.83,129.45 51.95,129.68ZM34.75,187.82C34.75,188.50 32.98,191.12 32.35,191.35C31.05,191.85 31.48,190.25 33.18,188.25C34.15,187.12 34.75,186.95 34.75,187.82Z"/>
</svg>
